<?xml version="1.0" encoding="utf-8" standalone="no"?>
<!DOCTYPE svg PUBLIC "-//W3C//DTD SVG 1.1//EN"
  "http://www.w3.org/Graphics/SVG/1.1/DTD/svg11.dtd">
<!-- Created with matplotlib (https://matplotlib.org/) -->
<svg height="110.88pt" version="1.1" viewBox="0 0 585.9 110.88" width="585.9pt" xmlns="http://www.w3.org/2000/svg" xmlns:xlink="http://www.w3.org/1999/xlink">
 <defs>
  <style type="text/css">
*{stroke-linecap:butt;stroke-linejoin:round;}
  </style>
 </defs>
 <g id="figure_1">
  <g id="axes_1">
   <g id="patch_1">
    <path clip-path="url(#p17abe7f5e7)" d="M 575.621053 84.115862 
L 567.911842 86.027586 
L 567.911842 84.134979 
L 10.278947 84.134979 
L 10.278947 84.096745 
L 567.911842 84.096745 
L 567.911842 82.204138 
z
" style="stroke:#000000;stroke-linejoin:miter;"/>
   </g>
   <g id="patch_2">
    <path clip-path="url(#p17abe7f5e7)" d="M 35.976316 7.646897 
L 38.546053 13.382069 
L 36.002013 13.382069 
L 36.002013 103.233103 
L 35.950618 103.233103 
L 35.950618 13.382069 
L 33.406579 13.382069 
z
" style="stroke:#000000;stroke-linejoin:miter;"/>
   </g>
   <g id="line2d_1">
    <defs>
     <path d="M 0 2 
C 0.530406 2 1.03916 1.789267 1.414214 1.414214 
C 1.789267 1.03916 2 0.530406 2 0 
C 2 -0.530406 1.789267 -1.03916 1.414214 -1.414214 
C 1.03916 -1.789267 0.530406 -2 0 -2 
C -0.530406 -2 -1.03916 -1.789267 -1.414214 -1.414214 
C -1.789267 -1.03916 -2 -0.530406 -2 0 
C -2 0.530406 -1.789267 1.03916 -1.414214 1.414214 
C -1.03916 1.789267 -0.530406 2 0 2 
z
" id="mc8894b05b6" style="stroke:#000000;"/>
    </defs>
    <g clip-path="url(#p17abe7f5e7)">
     <use style="stroke:#000000;" x="87.371053" xlink:href="#mc8894b05b6" y="45.881379"/>
    </g>
   </g>
   <g id="line2d_2">
    <g clip-path="url(#p17abe7f5e7)">
     <use style="stroke:#000000;" x="138.765789" xlink:href="#mc8894b05b6" y="74.557241"/>
    </g>
   </g>
   <g id="line2d_3">
    <g clip-path="url(#p17abe7f5e7)">
     <use style="stroke:#000000;" x="190.160526" xlink:href="#mc8894b05b6" y="79.867586"/>
    </g>
   </g>
   <g id="line2d_4">
    <g clip-path="url(#p17abe7f5e7)">
     <use style="stroke:#000000;" x="241.555263" xlink:href="#mc8894b05b6" y="81.726207"/>
    </g>
   </g>
   <g id="line2d_5">
    <g clip-path="url(#p17abe7f5e7)">
     <use style="stroke:#000000;" x="292.95" xlink:href="#mc8894b05b6" y="82.586483"/>
    </g>
   </g>
   <g id="line2d_6">
    <g clip-path="url(#p17abe7f5e7)">
     <use style="stroke:#000000;" x="344.344737" xlink:href="#mc8894b05b6" y="83.053793"/>
    </g>
   </g>
   <g id="line2d_7">
    <g clip-path="url(#p17abe7f5e7)">
     <use style="stroke:#000000;" x="395.739474" xlink:href="#mc8894b05b6" y="83.335567"/>
    </g>
   </g>
   <g id="line2d_8">
    <g clip-path="url(#p17abe7f5e7)">
     <use style="stroke:#000000;" x="447.134211" xlink:href="#mc8894b05b6" y="83.518448"/>
    </g>
   </g>
   <g id="line2d_9">
    <g clip-path="url(#p17abe7f5e7)">
     <use style="stroke:#000000;" x="498.528947" xlink:href="#mc8894b05b6" y="83.643831"/>
    </g>
   </g>
   <g id="line2d_10">
    <g clip-path="url(#p17abe7f5e7)">
     <use style="stroke:#000000;" x="549.923684" xlink:href="#mc8894b05b6" y="83.733517"/>
    </g>
   </g>
   <g id="text_1">
    <!-- $x$ -->
    <defs>
     <path d="M 47.40625 40.71875 
C 44.203125 40.109375 43 37.71875 43 35.828125 
C 43 33.421875 44.90625 32.625 46.296875 32.625 
C 49.296875 32.625 51.40625 35.21875 51.40625 37.921875 
C 51.40625 42.109375 46.59375 44 42.40625 44 
C 36.296875 44 32.90625 38.015625 32 36.125 
C 29.703125 44 23.5 44 21.703125 44 
C 11.5 44 6.09375 30.9375 6.09375 28.734375 
C 6.09375 28.34375 6.5 27.84375 7.203125 27.84375 
C 8 27.84375 8.203125 28.4375 8.40625 28.84375 
C 11.796875 39.921875 18.5 42.015625 21.40625 42.015625 
C 25.90625 42.015625 26.796875 37.8125 26.796875 35.421875 
C 26.796875 33.234375 26.203125 30.9375 25 26.140625 
L 21.59375 12.46875 
C 20.09375 6.484375 17.203125 1 11.90625 1 
C 11.40625 1 8.90625 1 6.796875 2.296875 
C 10.40625 3 11.203125 5.984375 11.203125 7.1875 
C 11.203125 9.1875 9.703125 10.375 7.796875 10.375 
C 5.40625 10.375 2.796875 8.28125 2.796875 5.09375 
C 2.796875 0.890625 7.5 -1 11.796875 -1 
C 16.59375 -1 20 2.796875 22.09375 6.890625 
C 23.703125 1 28.703125 -1 32.40625 -1 
C 42.59375 -1 48 12.078125 48 14.265625 
C 48 14.765625 47.59375 15.171875 47 15.171875 
C 46.09375 15.171875 46 14.671875 45.703125 13.875 
C 43 5.09375 37.203125 1 32.703125 1 
C 29.203125 1 27.296875 3.59375 27.296875 7.6875 
C 27.296875 9.875 27.703125 11.46875 29.296875 18.0625 
L 32.796875 31.625 
C 34.296875 37.625 37.703125 42.015625 42.296875 42.015625 
C 42.5 42.015625 45.296875 42.015625 47.40625 40.71875 
z
" id="CMMI12-120"/>
    </defs>
    <g transform="translate(567.911842 95.586207)scale(0.14 -0.14)">
     <use transform="scale(0.996264)" xlink:href="#CMMI12-120"/>
    </g>
   </g>
   <g id="text_2">
    <!-- $y$ -->
    <defs>
     <path d="M 26.296875 -10.9375 
C 23.59375 -14.671875 19.703125 -18 14.796875 -18 
C 13.59375 -18 8.796875 -18 7.296875 -13.890625 
C 7.59375 -13.984375 8.09375 -13.984375 8.296875 -13.984375 
C 11.296875 -13.984375 13.296875 -11.390625 13.296875 -9.09375 
C 13.296875 -6.796875 11.40625 -6 9.90625 -6 
C 8.296875 -6 4.796875 -7.15625 4.796875 -11.859375 
C 4.796875 -16.734375 9.09375 -20.09375 14.796875 -20.09375 
C 24.796875 -20.09375 34.90625 -10.9375 37.703125 0.09375 
L 47.5 38.828125 
C 47.59375 39.328125 47.796875 39.9375 47.796875 40.53125 
C 47.796875 42.015625 46.59375 43.015625 45.09375 43.015625 
C 44.203125 43.015625 42.09375 42.609375 41.296875 39.609375 
L 33.90625 10.28125 
C 33.40625 8.484375 33.40625 8.28125 32.59375 7.1875 
C 30.59375 4.390625 27.296875 1 22.5 1 
C 16.90625 1 16.40625 6.484375 16.40625 9.1875 
C 16.40625 14.875 19.09375 22.546875 21.796875 29.734375 
C 22.90625 32.625 23.5 34.03125 23.5 36.015625 
C 23.5 40.21875 20.5 44 15.59375 44 
C 6.40625 44 2.703125 29.53125 2.703125 28.734375 
C 2.703125 28.34375 3.09375 27.84375 3.796875 27.84375 
C 4.703125 27.84375 4.796875 28.234375 5.203125 29.640625 
C 7.59375 38.015625 11.40625 42.015625 15.296875 42.015625 
C 16.203125 42.015625 17.90625 42.015625 17.90625 38.71875 
C 17.90625 36.125 16.796875 33.234375 15.296875 29.4375 
C 10.40625 16.359375 10.40625 13.078125 10.40625 10.671875 
C 10.40625 1.203125 17.203125 -1 22.203125 -1 
C 25.09375 -1 28.703125 -0.09375 32.203125 3.59375 
L 32.296875 3.5 
C 30.796875 -2.296875 29.796875 -6.125 26.296875 -10.9375 
z
" id="CMMI12-121"/>
    </defs>
    <g transform="translate(23.127632 13.382069)scale(0.14 -0.14)">
     <use transform="scale(0.996264)" xlink:href="#CMMI12-121"/>
    </g>
   </g>
   <g id="text_3">
    <!-- $O$ -->
    <defs>
     <path d="M 72.59375 43.703125 
C 72.59375 60.125 61.796875 70.1875 47.796875 70.1875 
C 26.40625 70.1875 4.796875 47.28125 4.796875 24.28125 
C 4.796875 8.65625 15.203125 -2 29.703125 -2 
C 50.703125 -2 72.59375 19.8125 72.59375 43.703125 
z
M 30.296875 0.296875 
C 22.09375 0.296875 13.40625 6.265625 13.40625 21.796875 
C 13.40625 30.84375 16.703125 45.6875 24.90625 55.65625 
C 32.203125 64.421875 40.59375 68 47.296875 68 
C 56.09375 68 64.59375 61.625 64.59375 47.28125 
C 64.59375 38.421875 60.796875 24.578125 54.09375 15.125 
C 46.796875 4.96875 37.703125 0.296875 30.296875 0.296875 
z
" id="CMMI12-79"/>
    </defs>
    <g transform="translate(22.099737 97.497931)scale(0.14 -0.14)">
     <use transform="scale(0.996264)" xlink:href="#CMMI12-79"/>
    </g>
   </g>
   <g id="text_4">
    <!-- $1$ -->
    <defs>
     <path d="M 26.59375 63.40625 
C 26.59375 65.5 26.5 65.5 25.09375 65.5 
C 21.203125 61.1875 15.296875 59.796875 9.703125 59.796875 
C 9.40625 59.796875 8.90625 59.796875 8.796875 59.5 
C 8.703125 59.296875 8.703125 59.09375 8.703125 57 
C 11.796875 57 17 57.59375 21 59.984375 
L 21 7.203125 
C 21 3.6875 20.796875 2.5 12.203125 2.5 
L 9.203125 2.5 
L 9.203125 0 
C 14 0 19 0 23.796875 0 
C 28.59375 0 33.59375 0 38.40625 0 
L 38.40625 2.5 
L 35.40625 2.5 
C 26.796875 2.5 26.59375 3.59375 26.59375 7.15625 
z
" id="CMR17-49"/>
    </defs>
    <g transform="translate(83.956808 95.586207)scale(0.14 -0.14)">
     <use transform="scale(0.996264)" xlink:href="#CMR17-49"/>
    </g>
   </g>
   <g id="text_5">
    <!-- $2$ -->
    <defs>
     <path d="M 41.703125 15.453125 
L 39.90625 15.453125 
C 38.90625 8.375 38.09375 7.171875 37.703125 6.5625 
C 37.203125 5.765625 30 5.765625 28.59375 5.765625 
L 9.40625 5.765625 
C 13 9.671875 20 16.75 28.5 24.953125 
C 34.59375 30.734375 41.703125 37.53125 41.703125 47.421875 
C 41.703125 59.21875 32.296875 66 21.796875 66 
C 10.796875 66 4.09375 56.3125 4.09375 47.34375 
C 4.09375 43.4375 7 42.9375 8.203125 42.9375 
C 9.203125 42.9375 12.203125 43.546875 12.203125 47.03125 
C 12.203125 50.109375 9.59375 51 8.203125 51 
C 7.59375 51 7 50.90625 6.59375 50.703125 
C 8.5 59.21875 14.296875 63.40625 20.40625 63.40625 
C 29.09375 63.40625 34.796875 56.515625 34.796875 47.421875 
C 34.796875 38.734375 29.703125 31.25 24 24.75 
L 4.09375 2.28125 
L 4.09375 0 
L 39.296875 0 
z
" id="CMR17-50"/>
    </defs>
    <g transform="translate(135.351545 95.586207)scale(0.14 -0.14)">
     <use transform="scale(0.996264)" xlink:href="#CMR17-50"/>
    </g>
   </g>
   <g id="text_6">
    <!-- $3$ -->
    <defs>
     <path d="M 22.09375 33.703125 
C 31 33.703125 34.90625 25.96875 34.90625 17.03125 
C 34.90625 5 28.5 0.390625 22.703125 0.390625 
C 17.40625 0.390625 8.796875 3.03125 6.09375 10.828125 
C 6.59375 10.625 7.09375 10.625 7.59375 10.625 
C 10 10.625 11.796875 12.21875 11.796875 14.8125 
C 11.796875 17.703125 9.59375 19 7.59375 19 
C 5.90625 19 3.296875 18.203125 3.296875 14.46875 
C 3.296875 5.234375 12.296875 -2 22.90625 -2 
C 34 -2 42.5 6.71875 42.5 16.953125 
C 42.5 26.671875 34.5 33.703125 25 34.796875 
C 32.59375 36.375 39.90625 43.0625 39.90625 52.015625 
C 39.90625 59.6875 32 65.296875 23 65.296875 
C 13.90625 65.296875 5.90625 59.828125 5.90625 52.015625 
C 5.90625 48.59375 8.5 48 9.796875 48 
C 11.90625 48 13.703125 49.296875 13.703125 51.890625 
C 13.703125 54.46875 11.90625 55.765625 9.796875 55.765625 
C 9.40625 55.765625 8.90625 55.765625 8.5 55.578125 
C 11.40625 61.859375 19.296875 63 22.796875 63 
C 26.296875 63 32.90625 61.328125 32.90625 51.875 
C 32.90625 49.109375 32.5 44.1875 29.09375 39.84375 
C 26.09375 36 22.703125 36 19.40625 35.6875 
C 18.90625 35.6875 16.59375 35.453125 16.203125 35.453125 
C 15.5 35.359375 15.09375 35.265625 15.09375 34.5 
C 15.09375 33.796875 15.203125 33.703125 17.203125 33.703125 
z
" id="CMR17-51"/>
    </defs>
    <g transform="translate(186.746282 95.586207)scale(0.14 -0.14)">
     <use transform="scale(0.996264)" xlink:href="#CMR17-51"/>
    </g>
   </g>
   <g id="text_7">
    <!-- $4$ -->
    <defs>
     <path d="M 33.59375 64.40625 
C 33.59375 66.5 33.5 66.5 31.703125 66.5 
L 2 19.59375 
L 2 17 
L 27.796875 17 
L 27.796875 7.140625 
C 27.796875 3.5 27.59375 2.5 20.59375 2.5 
L 18.703125 2.5 
L 18.703125 0 
C 21.90625 0 27.296875 0 30.703125 0 
C 34.09375 0 39.5 0 42.703125 0 
L 42.703125 2.5 
L 40.796875 2.5 
C 33.796875 2.5 33.59375 3.5 33.59375 7.140625 
L 33.59375 17 
L 43.796875 17 
L 43.796875 19.59375 
L 33.59375 19.59375 
z
M 28.09375 57.859375 
L 28.09375 19.59375 
L 4 19.59375 
z
" id="CMR17-52"/>
    </defs>
    <g transform="translate(238.141019 95.586207)scale(0.14 -0.14)">
     <use transform="scale(0.996264)" xlink:href="#CMR17-52"/>
    </g>
   </g>
   <g id="text_8">
    <!-- $5$ -->
    <defs>
     <path d="M 11.40625 57.6875 
C 12.40625 57.28125 16.5 56 20.703125 56 
C 30 56 35.09375 61.109375 38 64.0625 
C 38 64.953125 38 65.5 37.40625 65.5 
C 37.296875 65.5 37.09375 65.5 36.296875 65.046875 
C 32.796875 63.40625 28.703125 62.078125 23.703125 62.078125 
C 20.703125 62.078125 16.203125 62.484375 11.296875 64.671875 
C 10.203125 65.171875 10 65.171875 9.90625 65.171875 
C 9.40625 65.171875 9.296875 65.0625 9.296875 63.078125 
L 9.296875 34.421875 
C 9.296875 32.640625 9.296875 32.140625 10.296875 32.140625 
C 10.796875 32.140625 11 32.34375 11.5 33.03125 
C 14.703125 37.515625 19.09375 39.40625 24.09375 39.40625 
C 27.59375 39.40625 35.09375 37.21875 35.09375 20.140625 
C 35.09375 16.953125 35.09375 11.171875 32.09375 6.578125 
C 29.59375 2.484375 25.703125 0.390625 21.40625 0.390625 
C 14.796875 0.390625 8.09375 5 6.296875 12.71875 
C 6.703125 12.609375 7.5 12.421875 7.90625 12.421875 
C 9.203125 12.421875 11.703125 13.125 11.703125 16.21875 
C 11.703125 18.90625 9.796875 20 7.90625 20 
C 5.59375 20 4.09375 18.59375 4.09375 15.796875 
C 4.09375 7.09375 11 -2 21.59375 -2 
C 31.90625 -2 41.703125 6.875 41.703125 19.75 
C 41.703125 31.71875 33.90625 41 24.203125 41 
C 19.09375 41 14.796875 39.109375 11.40625 35.53125 
z
" id="CMR17-53"/>
    </defs>
    <g transform="translate(289.535756 95.586207)scale(0.14 -0.14)">
     <use transform="scale(0.996264)" xlink:href="#CMR17-53"/>
    </g>
   </g>
   <g id="text_9">
    <!-- $6$ -->
    <defs>
     <path d="M 10.59375 34 
C 10.59375 57.65625 21.796875 63 28.296875 63 
C 30.40625 63 35.5 62.640625 37.5 59 
C 35.90625 59 32.90625 59 32.90625 55.515625 
C 32.90625 52.828125 35.09375 51.921875 36.5 51.921875 
C 37.40625 51.921875 40.09375 52.3125 40.09375 55.625 
C 40.09375 61.78125 35.09375 65.296875 28.203125 65.296875 
C 16.296875 65.296875 3.796875 52.96875 3.796875 31 
C 3.796875 3.953125 15.09375 -2 23.09375 -2 
C 32.796875 -2 42 6.671875 42 20.046875 
C 42 32.515625 33.90625 41.59375 23.703125 41.59375 
C 17.59375 41.59375 13.09375 37.609375 10.59375 30.625 
z
M 23.09375 0.390625 
C 10.796875 0.390625 10.796875 18.75 10.796875 22.4375 
C 10.796875 29.625 14.203125 40 23.5 40 
C 25.203125 40 30.09375 40 33.40625 33.125 
C 35.203125 29.21875 35.203125 25.140625 35.203125 20.140625 
C 35.203125 14.75 35.203125 10.78125 33.09375 6.78125 
C 30.90625 2.671875 27.703125 0.390625 23.09375 0.390625 
z
" id="CMR17-54"/>
    </defs>
    <g transform="translate(340.930493 95.586207)scale(0.14 -0.14)">
     <use transform="scale(0.996264)" xlink:href="#CMR17-54"/>
    </g>
   </g>
   <g id="text_10">
    <!-- $7$ -->
    <defs>
     <path d="M 45.09375 61.578125 
L 45.09375 63.765625 
L 21.59375 63.765625 
C 9.90625 63.765625 9.703125 65.078125 9.296875 67 
L 7.5 67 
L 4.59375 48.34375 
L 6.40625 48.34375 
C 6.703125 50.234375 7.40625 55.3125 8.59375 57.203125 
C 9.203125 58 16.59375 58 18.296875 58 
L 40.296875 58 
L 29.203125 41.578125 
C 21.796875 30.53125 16.703125 15.609375 16.703125 2.578125 
C 16.703125 1.390625 16.703125 -2 20.296875 -2 
C 23.90625 -2 23.90625 1.390625 23.90625 2.671875 
L 23.90625 7.265625 
C 23.90625 23.5625 26.703125 34.3125 31.296875 41.1875 
z
" id="CMR17-55"/>
    </defs>
    <g transform="translate(392.325229 95.586207)scale(0.14 -0.14)">
     <use transform="scale(0.996264)" xlink:href="#CMR17-55"/>
    </g>
   </g>
   <g id="text_11">
    <!-- $8$ -->
    <defs>
     <path d="M 27.203125 35.375 
C 33.5 38.546875 39.90625 43.328125 39.90625 50.984375 
C 39.90625 60.015625 31.09375 65.296875 23 65.296875 
C 13.90625 65.296875 5.90625 58.734375 5.90625 49.6875 
C 5.90625 47.203125 6.5 42.921875 10.40625 39.140625 
C 11.40625 38.15625 15.59375 35.171875 18.296875 33.28125 
C 13.796875 30.984375 3.296875 25.53125 3.296875 14.59375 
C 3.296875 4.359375 13.09375 -2 22.796875 -2 
C 33.5 -2 42.5 5.65625 42.5 15.78125 
C 42.5 24.84375 36.40625 29.015625 32.40625 31.703125 
z
M 14.09375 44.09375 
C 13.296875 44.59375 9.296875 47.671875 9.296875 52.359375 
C 9.296875 58.421875 15.59375 63 22.796875 63 
C 30.703125 63 36.5 57.4375 36.5 50.96875 
C 36.5 41.703125 26.09375 36.421875 25.59375 36.421875 
C 25.5 36.421875 25.40625 36.421875 24.59375 37.03125 
z
M 32.5 23.734375 
C 34 22.640625 38.796875 19.375 38.796875 13.296875 
C 38.796875 5.953125 31.40625 0.390625 23 0.390625 
C 13.90625 0.390625 7 6.84375 7 14.6875 
C 7 22.546875 13.09375 29.09375 20 32.1875 
z
" id="CMR17-56"/>
    </defs>
    <g transform="translate(443.719966 95.586207)scale(0.14 -0.14)">
     <use transform="scale(0.996264)" xlink:href="#CMR17-56"/>
    </g>
   </g>
   <g id="text_12">
    <!-- $9$ -->
    <defs>
     <path d="M 35.203125 29.125 
C 35.203125 7.25 26.09375 0.484375 18.59375 0.484375 
C 16.296875 0.484375 10.703125 0.484375 8.40625 4.59375 
C 11 4.1875 12.90625 5.578125 12.90625 8.09375 
C 12.90625 10.8125 10.703125 11.703125 9.296875 11.703125 
C 8.40625 11.703125 5.703125 11.296875 5.703125 7.90625 
C 5.703125 1.109375 11.59375 -2 18.796875 -2 
C 30.296875 -2 42 10.53125 42 32.390625 
C 42 59.640625 30.796875 65.296875 23.203125 65.296875 
C 13.296875 65.296875 3.796875 56.6875 3.796875 43.40625 
C 3.796875 31.109375 11.90625 22 22.09375 22 
C 30.5 22 34.203125 29.734375 35.203125 33 
z
M 22.296875 23.59375 
C 19.59375 23.59375 15.796875 24.09375 12.703125 30.03125 
C 10.59375 33.890625 10.59375 38.453125 10.59375 43.296875 
C 10.59375 49.15625 10.59375 53.203125 13.40625 57.5625 
C 14.796875 59.640625 17.40625 63 23.203125 63 
C 35 63 35 45.078125 35 41.125 
C 35 34.09375 31.796875 23.59375 22.296875 23.59375 
z
" id="CMR17-57"/>
    </defs>
    <g transform="translate(495.114703 95.586207)scale(0.14 -0.14)">
     <use transform="scale(0.996264)" xlink:href="#CMR17-57"/>
    </g>
   </g>
   <g id="text_13">
    <!-- $10$ -->
    <defs>
     <path d="M 42 31.640625 
C 42 37.75 41.90625 48.125 37.703125 56.109375 
C 34 63.109375 28.09375 65.59375 22.90625 65.59375 
C 18.09375 65.59375 12 63.40625 8.203125 56.203125 
C 4.203125 48.71875 3.796875 39.4375 3.796875 31.640625 
C 3.796875 25.953125 3.90625 17.28125 7 9.671875 
C 11.296875 -0.609375 19 -2 22.90625 -2 
C 27.5 -2 34.5 -0.109375 38.59375 9.375 
C 41.59375 16.28125 42 24.359375 42 31.640625 
z
M 22.90625 -0.40625 
C 16.5 -0.40625 12.703125 5.078125 11.296875 12.6875 
C 10.203125 18.5625 10.203125 27.15625 10.203125 32.75 
C 10.203125 40.4375 10.203125 46.828125 11.5 52.921875 
C 13.40625 61.390625 19 64 22.90625 64 
C 27 64 32.296875 61.296875 34.203125 53.125 
C 35.5 47.4375 35.59375 40.734375 35.59375 32.75 
C 35.59375 26.25 35.59375 18.265625 34.40625 12.375 
C 32.296875 1.484375 26.40625 -0.40625 22.90625 -0.40625 
z
" id="CMR17-48"/>
    </defs>
    <g transform="translate(543.095196 95.586207)scale(0.14 -0.14)">
     <use transform="scale(0.996264)" xlink:href="#CMR17-49"/>
     <use transform="translate(45.690477 0)scale(0.996264)" xlink:href="#CMR17-48"/>
    </g>
   </g>
   <g id="text_14">
    <!-- $$a_n = {1 \over n^2}$$ -->
    <defs>
     <path d="M 30.09375 11.875 
C 29.59375 10.171875 29.59375 9.984375 28.203125 8.078125 
C 26 5.28125 21.59375 1 16.90625 1 
C 12.796875 1 10.5 4.6875 10.5 10.578125 
C 10.5 16.0625 13.59375 27.234375 15.5 31.4375 
C 18.90625 38.421875 23.59375 42.015625 27.5 42.015625 
C 34.09375 42.015625 35.40625 33.828125 35.40625 33.03125 
C 35.40625 32.9375 35.09375 31.625 35 31.4375 
z
M 36.5 37.421875 
C 35.40625 40.015625 32.703125 44 27.5 44 
C 16.203125 44 4 29.4375 4 14.671875 
C 4 4.796875 9.796875 -1 16.59375 -1 
C 22.09375 -1 26.796875 3.296875 29.59375 6.59375 
C 30.59375 0.703125 35.296875 -1 38.296875 -1 
C 41.296875 -1 43.703125 0.796875 45.5 4.390625 
C 47.09375 7.78125 48.5 13.875 48.5 14.265625 
C 48.5 14.765625 48.09375 15.171875 47.5 15.171875 
C 46.59375 15.171875 46.5 14.671875 46.09375 13.171875 
C 44.59375 7.28125 42.703125 1 38.59375 1 
C 35.703125 1 35.5 3.59375 35.5 5.59375 
C 35.5 7.890625 35.796875 8.984375 36.703125 12.875 
C 37.40625 15.375 37.90625 17.5625 38.703125 20.453125 
C 42.40625 35.421875 43.296875 39.015625 43.296875 39.609375 
C 43.296875 41.015625 42.203125 42.109375 40.703125 42.109375 
C 37.5 42.109375 36.703125 38.625 36.5 37.421875 
z
" id="CMMI12-97"/>
     <path d="M 20.59375 29.234375 
C 20.796875 29.84375 23.296875 34.828125 27 38.015625 
C 29.59375 40.40625 33 42.015625 36.90625 42.015625 
C 40.90625 42.015625 42.296875 39.015625 42.296875 35.03125 
C 42.296875 29.34375 38.203125 17.96875 36.203125 12.578125 
C 35.296875 10.171875 34.796875 8.875 34.796875 7.078125 
C 34.796875 2.59375 37.90625 -1 42.703125 -1 
C 52 -1 55.5 13.671875 55.5 14.265625 
C 55.5 14.765625 55.09375 15.171875 54.5 15.171875 
C 53.59375 15.171875 53.5 14.875 53 13.171875 
C 50.703125 4.984375 46.90625 1 43 1 
C 42 1 40.40625 1 40.40625 4.203125 
C 40.40625 6.703125 41.5 9.703125 42.09375 11.09375 
C 44.09375 16.609375 48.296875 27.8125 48.296875 33.515625 
C 48.296875 39.5 44.796875 44 37.203125 44 
C 28.296875 44 23.59375 37.734375 21.796875 35.234375 
C 21.5 40.90625 17.40625 44 13 44 
C 9.796875 44 7.59375 42.109375 5.90625 38.71875 
C 4.09375 35.125 2.703125 29.140625 2.703125 28.734375 
C 2.703125 28.34375 3.09375 27.84375 3.796875 27.84375 
C 4.59375 27.84375 4.703125 27.9375 5.296875 30.234375 
C 6.90625 36.328125 8.703125 42.015625 12.703125 42.015625 
C 15 42.015625 15.796875 40.40625 15.796875 37.421875 
C 15.796875 35.21875 14.796875 31.328125 14.09375 28.234375 
L 11.296875 17.46875 
C 10.90625 15.5625 9.796875 11.078125 9.296875 9.28125 
C 8.59375 6.6875 7.5 2 7.5 1.5 
C 7.5 0.09375 8.59375 -1 10.09375 -1 
C 11.296875 -1 12.703125 -0.40625 13.5 1.09375 
C 13.703125 1.59375 14.59375 5.09375 15.09375 7.078125 
L 17.296875 16.0625 
z
" id="CMMI12-110"/>
     <path d="M 64.296875 31.515625 
C 65.796875 31.515625 67.296875 31.515625 67.296875 33.203125 
C 67.296875 35 65.59375 35 63.90625 35 
L 8 35 
C 6.296875 35 4.59375 35 4.59375 33.203125 
C 4.59375 31.515625 6.09375 31.515625 7.59375 31.515625 
z
M 63.90625 14 
C 65.59375 14 67.296875 14 67.296875 15.796875 
C 67.296875 17.484375 65.796875 17.484375 64.296875 17.484375 
L 7.59375 17.484375 
C 6.09375 17.484375 4.59375 17.484375 4.59375 15.796875 
C 4.59375 14 6.296875 14 8 14 
z
" id="CMR17-61"/>
    </defs>
    <g transform="translate(447.134211 45.881379)scale(0.14 -0.14)">
     <use transform="translate(0 68.338837)scale(0.996264)" xlink:href="#CMMI12-97"/>
     <use transform="translate(51.207858 53.394923)scale(0.697382)" xlink:href="#CMMI12-110"/>
     <use transform="translate(120.140841 68.338837)scale(0.996264)" xlink:href="#CMR17-61"/>
     <use transform="translate(243.235602 135.736882)scale(0.996264)" xlink:href="#CMR17-49"/>
     <use transform="translate(220.725152 0)scale(0.996264)" xlink:href="#CMMI12-110"/>
     <use transform="translate(278.9552 28.780957)scale(0.697382)" xlink:href="#CMR17-50"/>
     <path d="M 220.725152 91.25297 
L 311.436514 91.25297 
L 311.436514 95.23792 
L 220.725152 95.23792 
L 220.725152 91.25297 
z
"/>
    </g>
   </g>
  </g>
 </g>
 <defs>
  <clipPath id="p17abe7f5e7">
   <rect height="110.88" width="585.9" x="0" y="-0"/>
  </clipPath>
 </defs>
</svg>
