<?xml version="1.0" encoding="utf-8" standalone="no"?>
<!DOCTYPE svg PUBLIC "-//W3C//DTD SVG 1.1//EN"
  "http://www.w3.org/Graphics/SVG/1.1/DTD/svg11.dtd">
<!-- Created with matplotlib (https://matplotlib.org/) -->
<svg height="110.88pt" version="1.1" viewBox="0 0 306.9 110.88" width="306.9pt" xmlns="http://www.w3.org/2000/svg" xmlns:xlink="http://www.w3.org/1999/xlink">
 <defs>
  <style type="text/css">
*{stroke-linecap:butt;stroke-linejoin:round;}
  </style>
 </defs>
 <g id="figure_1">
  <g id="axes_1">
   <g id="patch_1">
    <path clip-path="url(#pf4d4b7ad7f)" d="M 301.742017 61.097143 
L 297.873529 62.228571 
L 297.873529 61.108457 
L 5.157983 61.108457 
L 5.157983 61.085829 
L 297.873529 61.085829 
L 297.873529 59.965714 
z
" style="stroke:#000000;stroke-linejoin:miter;"/>
   </g>
   <g id="patch_2">
    <path clip-path="url(#pf4d4b7ad7f)" d="M 18.052941 4.525714 
L 19.342437 7.92 
L 18.065836 7.92 
L 18.065836 117.668571 
L 18.040046 117.668571 
L 18.040046 7.92 
L 16.763445 7.92 
z
" style="stroke:#000000;stroke-linejoin:miter;"/>
   </g>
   <g id="line2d_1">
    <path clip-path="url(#pf4d4b7ad7f)" d="M 27.452686 -1 
L 28.368908 4.525714 
L 29.400504 9.668571 
L 30.69 14.916385 
L 31.979496 19.192381 
L 33.268992 22.743632 
L 34.816387 26.283956 
L 36.363782 29.225915 
L 37.911176 31.709388 
L 39.716471 34.158367 
L 41.521765 36.230581 
L 43.584958 38.24 
L 45.648151 39.948945 
L 47.969244 41.589754 
L 50.548235 43.137959 
L 53.385126 44.579937 
L 56.479916 45.910182 
L 60.090504 47.214584 
L 64.216891 48.455483 
L 68.859076 49.610558 
L 74.274958 50.717064 
L 80.464538 51.746494 
L 87.685714 52.71619 
L 96.196387 53.628967 
L 106.254454 54.480602 
L 118.375714 55.280029 
L 133.333866 56.034823 
L 151.644706 56.728693 
L 174.85563 57.375338 
L 204.514034 57.967327 
L 243.198908 58.505096 
L 288.58916 58.939986 
L 288.58916 58.939986 
" style="fill:none;stroke:#e377c2;stroke-linecap:square;"/>
   </g>
   <g id="line2d_2">
    <defs>
     <path d="M 0 2 
C 0.530406 2 1.03916 1.789267 1.414214 1.414214 
C 1.789267 1.03916 2 0.530406 2 0 
C 2 -0.530406 1.789267 -1.03916 1.414214 -1.414214 
C 1.03916 -1.789267 0.530406 -2 0 -2 
C -0.530406 -2 -1.03916 -1.789267 -1.414214 -1.414214 
C -1.789267 -1.03916 -2 -0.530406 -2 0 
C -2 0.530406 -1.789267 1.03916 -1.414214 1.414214 
C -1.03916 1.789267 -0.530406 2 0 2 
z
" id="m52a6f16475" style="stroke:#000000;"/>
    </defs>
    <g clip-path="url(#pf4d4b7ad7f)">
     <use style="stroke:#000000;" x="43.842857" xlink:href="#m52a6f16475" y="38.468571"/>
    </g>
   </g>
   <g id="line2d_3">
    <g clip-path="url(#pf4d4b7ad7f)">
     <use style="stroke:#000000;" x="69.632773" xlink:href="#m52a6f16475" y="49.782857"/>
    </g>
   </g>
   <g id="line2d_4">
    <g clip-path="url(#pf4d4b7ad7f)">
     <use style="stroke:#000000;" x="95.422689" xlink:href="#m52a6f16475" y="53.554286"/>
    </g>
   </g>
   <g id="line2d_5">
    <g clip-path="url(#pf4d4b7ad7f)">
     <use style="stroke:#000000;" x="121.212605" xlink:href="#m52a6f16475" y="55.44"/>
    </g>
   </g>
   <g id="line2d_6">
    <g clip-path="url(#pf4d4b7ad7f)">
     <use style="stroke:#000000;" x="147.002521" xlink:href="#m52a6f16475" y="56.571429"/>
    </g>
   </g>
   <g id="line2d_7">
    <g clip-path="url(#pf4d4b7ad7f)">
     <use style="stroke:#000000;" x="172.792437" xlink:href="#m52a6f16475" y="57.325714"/>
    </g>
   </g>
   <g id="line2d_8">
    <g clip-path="url(#pf4d4b7ad7f)">
     <use style="stroke:#000000;" x="198.582353" xlink:href="#m52a6f16475" y="57.86449"/>
    </g>
   </g>
   <g id="line2d_9">
    <g clip-path="url(#pf4d4b7ad7f)">
     <use style="stroke:#000000;" x="224.372269" xlink:href="#m52a6f16475" y="58.268571"/>
    </g>
   </g>
   <g id="line2d_10">
    <g clip-path="url(#pf4d4b7ad7f)">
     <use style="stroke:#000000;" x="250.162185" xlink:href="#m52a6f16475" y="58.582857"/>
    </g>
   </g>
   <g id="line2d_11">
    <g clip-path="url(#pf4d4b7ad7f)">
     <use style="stroke:#000000;" x="275.952101" xlink:href="#m52a6f16475" y="58.834286"/>
    </g>
   </g>
   <g id="line2d_12">
    <path clip-path="url(#pf4d4b7ad7f)" d="M 29.546217 111.88 
L 30.69 107.277901 
L 31.979496 103.001905 
L 33.268992 99.450654 
L 34.816387 95.91033 
L 36.363782 92.96837 
L 37.911176 90.484898 
L 39.716471 88.035918 
L 41.521765 85.963705 
L 43.584958 83.954286 
L 45.648151 82.24534 
L 47.969244 80.604532 
L 50.548235 79.056327 
L 53.385126 77.614348 
L 56.479916 76.284104 
L 60.090504 74.979702 
L 64.216891 73.738803 
L 68.859076 72.583727 
L 74.274958 71.477221 
L 80.464538 70.447792 
L 87.685714 69.478095 
L 96.196387 68.565318 
L 106.254454 67.713684 
L 118.375714 66.914256 
L 133.333866 66.159463 
L 151.644706 65.465593 
L 174.85563 64.818947 
L 204.514034 64.226959 
L 243.198908 63.68919 
L 288.58916 63.254299 
L 288.58916 63.254299 
" style="fill:none;stroke:#9467bd;stroke-linecap:square;"/>
   </g>
   <g id="line2d_13">
    <g clip-path="url(#pf4d4b7ad7f)">
     <use style="stroke:#000000;" x="43.842857" xlink:href="#m52a6f16475" y="83.725714"/>
    </g>
   </g>
   <g id="line2d_14">
    <g clip-path="url(#pf4d4b7ad7f)">
     <use style="stroke:#000000;" x="69.632773" xlink:href="#m52a6f16475" y="72.411429"/>
    </g>
   </g>
   <g id="line2d_15">
    <g clip-path="url(#pf4d4b7ad7f)">
     <use style="stroke:#000000;" x="95.422689" xlink:href="#m52a6f16475" y="68.64"/>
    </g>
   </g>
   <g id="line2d_16">
    <g clip-path="url(#pf4d4b7ad7f)">
     <use style="stroke:#000000;" x="121.212605" xlink:href="#m52a6f16475" y="66.754286"/>
    </g>
   </g>
   <g id="line2d_17">
    <g clip-path="url(#pf4d4b7ad7f)">
     <use style="stroke:#000000;" x="147.002521" xlink:href="#m52a6f16475" y="65.622857"/>
    </g>
   </g>
   <g id="line2d_18">
    <g clip-path="url(#pf4d4b7ad7f)">
     <use style="stroke:#000000;" x="172.792437" xlink:href="#m52a6f16475" y="64.868571"/>
    </g>
   </g>
   <g id="line2d_19">
    <g clip-path="url(#pf4d4b7ad7f)">
     <use style="stroke:#000000;" x="198.582353" xlink:href="#m52a6f16475" y="64.329796"/>
    </g>
   </g>
   <g id="line2d_20">
    <g clip-path="url(#pf4d4b7ad7f)">
     <use style="stroke:#000000;" x="224.372269" xlink:href="#m52a6f16475" y="63.925714"/>
    </g>
   </g>
   <g id="line2d_21">
    <g clip-path="url(#pf4d4b7ad7f)">
     <use style="stroke:#000000;" x="250.162185" xlink:href="#m52a6f16475" y="63.611429"/>
    </g>
   </g>
   <g id="line2d_22">
    <g clip-path="url(#pf4d4b7ad7f)">
     <use style="stroke:#000000;" x="275.952101" xlink:href="#m52a6f16475" y="63.36"/>
    </g>
   </g>
   <g id="line2d_23">
    <defs>
     <path d="M 0 2 
C 0.530406 2 1.03916 1.789267 1.414214 1.414214 
C 1.789267 1.03916 2 0.530406 2 0 
C 2 -0.530406 1.789267 -1.03916 1.414214 -1.414214 
C 1.03916 -1.789267 0.530406 -2 0 -2 
C -0.530406 -2 -1.03916 -1.789267 -1.414214 -1.414214 
C -1.789267 -1.03916 -2 -0.530406 -2 0 
C -2 0.530406 -1.789267 1.03916 -1.414214 1.414214 
C -1.03916 1.789267 -0.530406 2 0 2 
z
" id="maa03be2efc" style="stroke:#1f77b4;"/>
    </defs>
    <g clip-path="url(#pf4d4b7ad7f)">
     <use style="fill:#1f77b4;stroke:#1f77b4;" x="43.842857" xlink:href="#maa03be2efc" y="83.725714"/>
    </g>
   </g>
   <g id="line2d_24">
    <g clip-path="url(#pf4d4b7ad7f)">
     <use style="fill:#1f77b4;stroke:#1f77b4;" x="69.632773" xlink:href="#maa03be2efc" y="49.782857"/>
    </g>
   </g>
   <g id="line2d_25">
    <g clip-path="url(#pf4d4b7ad7f)">
     <use style="fill:#1f77b4;stroke:#1f77b4;" x="95.422689" xlink:href="#maa03be2efc" y="68.64"/>
    </g>
   </g>
   <g id="line2d_26">
    <g clip-path="url(#pf4d4b7ad7f)">
     <use style="fill:#1f77b4;stroke:#1f77b4;" x="121.212605" xlink:href="#maa03be2efc" y="55.44"/>
    </g>
   </g>
   <g id="line2d_27">
    <g clip-path="url(#pf4d4b7ad7f)">
     <use style="fill:#1f77b4;stroke:#1f77b4;" x="147.002521" xlink:href="#maa03be2efc" y="65.622857"/>
    </g>
   </g>
   <g id="line2d_28">
    <g clip-path="url(#pf4d4b7ad7f)">
     <use style="fill:#1f77b4;stroke:#1f77b4;" x="172.792437" xlink:href="#maa03be2efc" y="57.325714"/>
    </g>
   </g>
   <g id="line2d_29">
    <g clip-path="url(#pf4d4b7ad7f)">
     <use style="fill:#1f77b4;stroke:#1f77b4;" x="198.582353" xlink:href="#maa03be2efc" y="64.329796"/>
    </g>
   </g>
   <g id="line2d_30">
    <g clip-path="url(#pf4d4b7ad7f)">
     <use style="fill:#1f77b4;stroke:#1f77b4;" x="224.372269" xlink:href="#maa03be2efc" y="58.268571"/>
    </g>
   </g>
   <g id="line2d_31">
    <g clip-path="url(#pf4d4b7ad7f)">
     <use style="fill:#1f77b4;stroke:#1f77b4;" x="250.162185" xlink:href="#maa03be2efc" y="63.611429"/>
    </g>
   </g>
   <g id="line2d_32">
    <g clip-path="url(#pf4d4b7ad7f)">
     <use style="fill:#1f77b4;stroke:#1f77b4;" x="275.952101" xlink:href="#maa03be2efc" y="58.834286"/>
    </g>
   </g>
   <g id="text_1">
    <!-- $x$ -->
    <defs>
     <path d="M 47.40625 40.71875 
C 44.203125 40.109375 43 37.71875 43 35.828125 
C 43 33.421875 44.90625 32.625 46.296875 32.625 
C 49.296875 32.625 51.40625 35.21875 51.40625 37.921875 
C 51.40625 42.109375 46.59375 44 42.40625 44 
C 36.296875 44 32.90625 38.015625 32 36.125 
C 29.703125 44 23.5 44 21.703125 44 
C 11.5 44 6.09375 30.9375 6.09375 28.734375 
C 6.09375 28.34375 6.5 27.84375 7.203125 27.84375 
C 8 27.84375 8.203125 28.4375 8.40625 28.84375 
C 11.796875 39.921875 18.5 42.015625 21.40625 42.015625 
C 25.90625 42.015625 26.796875 37.8125 26.796875 35.421875 
C 26.796875 33.234375 26.203125 30.9375 25 26.140625 
L 21.59375 12.46875 
C 20.09375 6.484375 17.203125 1 11.90625 1 
C 11.40625 1 8.90625 1 6.796875 2.296875 
C 10.40625 3 11.203125 5.984375 11.203125 7.1875 
C 11.203125 9.1875 9.703125 10.375 7.796875 10.375 
C 5.40625 10.375 2.796875 8.28125 2.796875 5.09375 
C 2.796875 0.890625 7.5 -1 11.796875 -1 
C 16.59375 -1 20 2.796875 22.09375 6.890625 
C 23.703125 1 28.703125 -1 32.40625 -1 
C 42.59375 -1 48 12.078125 48 14.265625 
C 48 14.765625 47.59375 15.171875 47 15.171875 
C 46.09375 15.171875 46 14.671875 45.703125 13.875 
C 43 5.09375 37.203125 1 32.703125 1 
C 29.203125 1 27.296875 3.59375 27.296875 7.6875 
C 27.296875 9.875 27.703125 11.46875 29.296875 18.0625 
L 32.796875 31.625 
C 34.296875 37.625 37.703125 42.015625 42.296875 42.015625 
C 42.5 42.015625 45.296875 42.015625 47.40625 40.71875 
z
" id="CMMI12-120"/>
    </defs>
    <g transform="translate(293.993145 71.36915)scale(0.14 -0.14)">
     <use transform="scale(0.996264)" xlink:href="#CMMI12-120"/>
    </g>
   </g>
   <g id="text_2">
    <!-- $y$ -->
    <defs>
     <path d="M 26.296875 -10.9375 
C 23.59375 -14.671875 19.703125 -18 14.796875 -18 
C 13.59375 -18 8.796875 -18 7.296875 -13.890625 
C 7.59375 -13.984375 8.09375 -13.984375 8.296875 -13.984375 
C 11.296875 -13.984375 13.296875 -11.390625 13.296875 -9.09375 
C 13.296875 -6.796875 11.40625 -6 9.90625 -6 
C 8.296875 -6 4.796875 -7.15625 4.796875 -11.859375 
C 4.796875 -16.734375 9.09375 -20.09375 14.796875 -20.09375 
C 24.796875 -20.09375 34.90625 -10.9375 37.703125 0.09375 
L 47.5 38.828125 
C 47.59375 39.328125 47.796875 39.9375 47.796875 40.53125 
C 47.796875 42.015625 46.59375 43.015625 45.09375 43.015625 
C 44.203125 43.015625 42.09375 42.609375 41.296875 39.609375 
L 33.90625 10.28125 
C 33.40625 8.484375 33.40625 8.28125 32.59375 7.1875 
C 30.59375 4.390625 27.296875 1 22.5 1 
C 16.90625 1 16.40625 6.484375 16.40625 9.1875 
C 16.40625 14.875 19.09375 22.546875 21.796875 29.734375 
C 22.90625 32.625 23.5 34.03125 23.5 36.015625 
C 23.5 40.21875 20.5 44 15.59375 44 
C 6.40625 44 2.703125 29.53125 2.703125 28.734375 
C 2.703125 28.34375 3.09375 27.84375 3.796875 27.84375 
C 4.703125 27.84375 4.796875 28.234375 5.203125 29.640625 
C 7.59375 38.015625 11.40625 42.015625 15.296875 42.015625 
C 16.203125 42.015625 17.90625 42.015625 17.90625 38.71875 
C 17.90625 36.125 16.796875 33.234375 15.296875 29.4375 
C 10.40625 16.359375 10.40625 13.078125 10.40625 10.671875 
C 10.40625 1.203125 17.203125 -1 22.203125 -1 
C 25.09375 -1 28.703125 -0.09375 32.203125 3.59375 
L 32.296875 3.5 
C 30.796875 -2.296875 29.796875 -6.125 26.296875 -10.9375 
z
" id="CMMI12-121"/>
    </defs>
    <g transform="translate(8.275975 11.403435)scale(0.14 -0.14)">
     <use transform="scale(0.996264)" xlink:href="#CMMI12-121"/>
    </g>
   </g>
   <g id="text_3">
    <!-- $O$ -->
    <defs>
     <path d="M 72.59375 43.703125 
C 72.59375 60.125 61.796875 70.1875 47.796875 70.1875 
C 26.40625 70.1875 4.796875 47.28125 4.796875 24.28125 
C 4.796875 8.65625 15.203125 -2 29.703125 -2 
C 50.703125 -2 72.59375 19.8125 72.59375 43.703125 
z
M 30.296875 0.296875 
C 22.09375 0.296875 13.40625 6.265625 13.40625 21.796875 
C 13.40625 30.84375 16.703125 45.6875 24.90625 55.65625 
C 32.203125 64.421875 40.59375 68 47.296875 68 
C 56.09375 68 64.59375 61.625 64.59375 47.28125 
C 64.59375 38.421875 60.796875 24.578125 54.09375 15.125 
C 46.796875 4.96875 37.703125 0.296875 30.296875 0.296875 
z
" id="CMMI12-79"/>
    </defs>
    <g transform="translate(6.386918 71.36915)scale(0.14 -0.14)">
     <use transform="scale(0.996264)" xlink:href="#CMMI12-79"/>
    </g>
   </g>
   <g id="text_4">
    <!-- $$ a_n = \frac{1}{n} $$ -->
    <defs>
     <path d="M 30.09375 11.875 
C 29.59375 10.171875 29.59375 9.984375 28.203125 8.078125 
C 26 5.28125 21.59375 1 16.90625 1 
C 12.796875 1 10.5 4.6875 10.5 10.578125 
C 10.5 16.0625 13.59375 27.234375 15.5 31.4375 
C 18.90625 38.421875 23.59375 42.015625 27.5 42.015625 
C 34.09375 42.015625 35.40625 33.828125 35.40625 33.03125 
C 35.40625 32.9375 35.09375 31.625 35 31.4375 
z
M 36.5 37.421875 
C 35.40625 40.015625 32.703125 44 27.5 44 
C 16.203125 44 4 29.4375 4 14.671875 
C 4 4.796875 9.796875 -1 16.59375 -1 
C 22.09375 -1 26.796875 3.296875 29.59375 6.59375 
C 30.59375 0.703125 35.296875 -1 38.296875 -1 
C 41.296875 -1 43.703125 0.796875 45.5 4.390625 
C 47.09375 7.78125 48.5 13.875 48.5 14.265625 
C 48.5 14.765625 48.09375 15.171875 47.5 15.171875 
C 46.59375 15.171875 46.5 14.671875 46.09375 13.171875 
C 44.59375 7.28125 42.703125 1 38.59375 1 
C 35.703125 1 35.5 3.59375 35.5 5.59375 
C 35.5 7.890625 35.796875 8.984375 36.703125 12.875 
C 37.40625 15.375 37.90625 17.5625 38.703125 20.453125 
C 42.40625 35.421875 43.296875 39.015625 43.296875 39.609375 
C 43.296875 41.015625 42.203125 42.109375 40.703125 42.109375 
C 37.5 42.109375 36.703125 38.625 36.5 37.421875 
z
" id="CMMI12-97"/>
     <path d="M 20.59375 29.234375 
C 20.796875 29.84375 23.296875 34.828125 27 38.015625 
C 29.59375 40.40625 33 42.015625 36.90625 42.015625 
C 40.90625 42.015625 42.296875 39.015625 42.296875 35.03125 
C 42.296875 29.34375 38.203125 17.96875 36.203125 12.578125 
C 35.296875 10.171875 34.796875 8.875 34.796875 7.078125 
C 34.796875 2.59375 37.90625 -1 42.703125 -1 
C 52 -1 55.5 13.671875 55.5 14.265625 
C 55.5 14.765625 55.09375 15.171875 54.5 15.171875 
C 53.59375 15.171875 53.5 14.875 53 13.171875 
C 50.703125 4.984375 46.90625 1 43 1 
C 42 1 40.40625 1 40.40625 4.203125 
C 40.40625 6.703125 41.5 9.703125 42.09375 11.09375 
C 44.09375 16.609375 48.296875 27.8125 48.296875 33.515625 
C 48.296875 39.5 44.796875 44 37.203125 44 
C 28.296875 44 23.59375 37.734375 21.796875 35.234375 
C 21.5 40.90625 17.40625 44 13 44 
C 9.796875 44 7.59375 42.109375 5.90625 38.71875 
C 4.09375 35.125 2.703125 29.140625 2.703125 28.734375 
C 2.703125 28.34375 3.09375 27.84375 3.796875 27.84375 
C 4.59375 27.84375 4.703125 27.9375 5.296875 30.234375 
C 6.90625 36.328125 8.703125 42.015625 12.703125 42.015625 
C 15 42.015625 15.796875 40.40625 15.796875 37.421875 
C 15.796875 35.21875 14.796875 31.328125 14.09375 28.234375 
L 11.296875 17.46875 
C 10.90625 15.5625 9.796875 11.078125 9.296875 9.28125 
C 8.59375 6.6875 7.5 2 7.5 1.5 
C 7.5 0.09375 8.59375 -1 10.09375 -1 
C 11.296875 -1 12.703125 -0.40625 13.5 1.09375 
C 13.703125 1.59375 14.59375 5.09375 15.09375 7.078125 
L 17.296875 16.0625 
z
" id="CMMI12-110"/>
     <path d="M 64.296875 31.515625 
C 65.796875 31.515625 67.296875 31.515625 67.296875 33.203125 
C 67.296875 35 65.59375 35 63.90625 35 
L 8 35 
C 6.296875 35 4.59375 35 4.59375 33.203125 
C 4.59375 31.515625 6.09375 31.515625 7.59375 31.515625 
z
M 63.90625 14 
C 65.59375 14 67.296875 14 67.296875 15.796875 
C 67.296875 17.484375 65.796875 17.484375 64.296875 17.484375 
L 7.59375 17.484375 
C 6.09375 17.484375 4.59375 17.484375 4.59375 15.796875 
C 4.59375 14 6.296875 14 8 14 
z
" id="CMR17-61"/>
     <path d="M 26.59375 63.40625 
C 26.59375 65.5 26.5 65.5 25.09375 65.5 
C 21.203125 61.1875 15.296875 59.796875 9.703125 59.796875 
C 9.40625 59.796875 8.90625 59.796875 8.796875 59.5 
C 8.703125 59.296875 8.703125 59.09375 8.703125 57 
C 11.796875 57 17 57.59375 21 59.984375 
L 21 7.203125 
C 21 3.6875 20.796875 2.5 12.203125 2.5 
L 9.203125 2.5 
L 9.203125 0 
C 14 0 19 0 23.796875 0 
C 28.59375 0 33.59375 0 38.40625 0 
L 38.40625 2.5 
L 35.40625 2.5 
C 26.796875 2.5 26.59375 3.59375 26.59375 7.15625 
z
" id="CMR17-49"/>
    </defs>
    <g transform="translate(164.968004 49.493618)scale(0.14 -0.14)">
     <use transform="translate(0 68.338837)scale(0.996264)" xlink:href="#CMMI12-97"/>
     <use transform="translate(51.207858 53.394923)scale(0.697382)" xlink:href="#CMMI12-110"/>
     <use transform="translate(120.140841 68.338837)scale(0.996264)" xlink:href="#CMR17-61"/>
     <use transform="translate(226.994945 135.736882)scale(0.996264)" xlink:href="#CMR17-49"/>
     <use transform="translate(220.725152 0)scale(0.996264)" xlink:href="#CMMI12-110"/>
     <path d="M 220.725152 91.25297 
L 278.9552 91.25297 
L 278.9552 95.23792 
L 220.725152 95.23792 
L 220.725152 91.25297 
z
"/>
    </g>
   </g>
   <g id="text_5">
    <!-- $$ a_n = -\frac{1}{n} $$ -->
    <defs>
     <path d="M 65.90625 23 
C 67.59375 23 69.40625 23 69.40625 25 
C 69.40625 27 67.59375 27 65.90625 27 
L 11.796875 27 
C 10.09375 27 8.296875 27 8.296875 25 
C 8.296875 23 10.09375 23 11.796875 23 
z
" id="CMSY10-0"/>
    </defs>
    <g transform="translate(159.543886 94.750761)scale(0.14 -0.14)">
     <use transform="translate(0 68.338837)scale(0.996264)" xlink:href="#CMMI12-97"/>
     <use transform="translate(51.207858 53.394923)scale(0.697382)" xlink:href="#CMMI12-110"/>
     <use transform="translate(120.140841 68.338837)scale(0.996264)" xlink:href="#CMR17-61"/>
     <use transform="translate(219.529639 68.338837)scale(0.996264)" xlink:href="#CMSY10-0"/>
     <use transform="translate(304.482413 135.736882)scale(0.996264)" xlink:href="#CMR17-49"/>
     <use transform="translate(298.21262 0)scale(0.996264)" xlink:href="#CMMI12-110"/>
     <path d="M 298.21262 91.25297 
L 356.442667 91.25297 
L 356.442667 95.23792 
L 298.21262 95.23792 
L 298.21262 91.25297 
z
"/>
    </g>
   </g>
   <g id="text_6">
    <!-- $$ a_n = \frac{(-1)^n}{n} $$ -->
    <defs>
     <path d="M 30.59375 -24.390625 
C 30.59375 -24.296875 30.59375 -24.09375 30.296875 -23.796875 
C 25.703125 -19.125 13.40625 -6.359375 13.40625 24.703125 
C 13.40625 55.765625 25.5 68.421875 30.40625 73.390625 
C 30.40625 73.5 30.59375 73.703125 30.59375 74 
C 30.59375 74.296875 30.296875 74.5 29.90625 74.5 
C 28.796875 74.5 20.296875 67.125 15.40625 56.15625 
C 10.40625 45.109375 9 34.359375 9 24.8125 
C 9 17.625 9.703125 5.484375 15.703125 -7.359375 
C 20.5 -17.734375 28.703125 -25 29.90625 -25 
C 30.40625 -25 30.59375 -24.796875 30.59375 -24.390625 
z
" id="CMR17-40"/>
     <path d="M 26.296875 24.703125 
C 26.296875 31.875 25.59375 44.015625 19.59375 56.859375 
C 14.796875 67.234375 6.59375 74.5 5.40625 74.5 
C 5.09375 74.5 4.703125 74.390625 4.703125 73.890625 
C 4.703125 73.703125 4.796875 73.59375 4.90625 73.390625 
C 9.703125 68.40625 21.90625 55.75 21.90625 24.75 
C 21.90625 -6.359375 9.796875 -19.015625 4.90625 -24.015625 
C 4.796875 -24.203125 4.703125 -24.3125 4.703125 -24.5 
C 4.703125 -25 5.09375 -25 5.40625 -25 
C 6.5 -25 15 -17.625 19.90625 -6.65625 
C 24.90625 4.390625 26.296875 15.140625 26.296875 24.703125 
z
" id="CMR17-41"/>
    </defs>
    <g style="fill:#1f77b4;" transform="translate(53.617403 43.441178)scale(0.14 -0.14)">
     <use transform="translate(0 68.338837)scale(0.996264)" xlink:href="#CMMI12-97"/>
     <use transform="translate(51.207858 53.394923)scale(0.697382)" xlink:href="#CMMI12-110"/>
     <use transform="translate(120.140841 68.338837)scale(0.996264)" xlink:href="#CMR17-61"/>
     <use transform="translate(220.725152 135.736882)scale(0.996264)" xlink:href="#CMR17-40"/>
     <use transform="translate(256.00592 135.736882)scale(0.996264)" xlink:href="#CMSY10-0"/>
     <use transform="translate(333.493388 135.736882)scale(0.996264)" xlink:href="#CMR17-49"/>
     <use transform="translate(379.183865 135.736882)scale(0.996264)" xlink:href="#CMR17-41"/>
     <use transform="translate(414.464633 171.890521)scale(0.697382)" xlink:href="#CMMI12-110"/>
     <use transform="translate(309.109364 0)scale(0.996264)" xlink:href="#CMMI12-110"/>
     <path d="M 220.725152 91.25297 
L 455.723608 91.25297 
L 455.723608 95.23792 
L 220.725152 95.23792 
L 220.725152 91.25297 
z
"/>
    </g>
   </g>
  </g>
 </g>
 <defs>
  <clipPath id="pf4d4b7ad7f">
   <rect height="110.88" width="306.9" x="0" y="-0"/>
  </clipPath>
 </defs>
</svg>
