<?xml version="1.0" encoding="utf-8" standalone="no"?>
<!DOCTYPE svg PUBLIC "-//W3C//DTD SVG 1.1//EN"
  "http://www.w3.org/Graphics/SVG/1.1/DTD/svg11.dtd">
<!-- Created with matplotlib (https://matplotlib.org/) -->
<svg height="110.88pt" version="1.1" viewBox="0 0 306.9 110.88" width="306.9pt" xmlns="http://www.w3.org/2000/svg" xmlns:xlink="http://www.w3.org/1999/xlink">
 <defs>
  <style type="text/css">
*{stroke-linecap:butt;stroke-linejoin:round;}
  </style>
 </defs>
 <g id="figure_1">
  <g id="axes_1">
   <g id="patch_1">
    <path clip-path="url(#p08e73ca50e)" d="M 301.742017 61.097143 
L 297.873529 62.228571 
L 297.873529 61.108457 
L 5.157983 61.108457 
L 5.157983 61.085829 
L 297.873529 61.085829 
L 297.873529 59.965714 
z
" style="stroke:#000000;stroke-linejoin:miter;"/>
   </g>
   <g id="patch_2">
    <path clip-path="url(#p08e73ca50e)" d="M 18.052941 4.525714 
L 19.342437 7.92 
L 18.065836 7.92 
L 18.065836 117.668571 
L 18.040046 117.668571 
L 18.040046 7.92 
L 16.763445 7.92 
z
" style="stroke:#000000;stroke-linejoin:miter;"/>
   </g>
   <g id="line2d_1">
    <path clip-path="url(#p08e73ca50e)" d="M 27.452686 -1 
L 28.368908 4.525714 
L 29.400504 9.668571 
L 30.69 14.916385 
L 31.979496 19.192381 
L 33.268992 22.743632 
L 34.816387 26.283956 
L 36.363782 29.225915 
L 37.911176 31.709388 
L 39.716471 34.158367 
L 41.521765 36.230581 
L 43.584958 38.24 
L 45.648151 39.948945 
L 47.969244 41.589754 
L 50.548235 43.137959 
L 53.385126 44.579937 
L 56.479916 45.910182 
L 60.090504 47.214584 
L 64.216891 48.455483 
L 68.859076 49.610558 
L 74.274958 50.717064 
L 80.464538 51.746494 
L 87.685714 52.71619 
L 96.196387 53.628967 
L 106.254454 54.480602 
L 118.375714 55.280029 
L 133.333866 56.034823 
L 151.644706 56.728693 
L 174.85563 57.375338 
L 204.514034 57.967327 
L 243.198908 58.505096 
L 288.58916 58.939986 
L 288.58916 58.939986 
" style="fill:none;stroke:#e377c2;stroke-linecap:square;"/>
   </g>
   <g id="line2d_2">
    <defs>
     <path d="M 0 2 
C 0.530406 2 1.03916 1.789267 1.414214 1.414214 
C 1.789267 1.03916 2 0.530406 2 0 
C 2 -0.530406 1.789267 -1.03916 1.414214 -1.414214 
C 1.03916 -1.789267 0.530406 -2 0 -2 
C -0.530406 -2 -1.03916 -1.789267 -1.414214 -1.414214 
C -1.789267 -1.03916 -2 -0.530406 -2 0 
C -2 0.530406 -1.789267 1.03916 -1.414214 1.414214 
C -1.03916 1.789267 -0.530406 2 0 2 
z
" id="m677baa0259" style="stroke:#000000;"/>
    </defs>
    <g clip-path="url(#p08e73ca50e)">
     <use style="stroke:#000000;" x="43.842857" xlink:href="#m677baa0259" y="38.468571"/>
    </g>
   </g>
   <g id="line2d_3">
    <g clip-path="url(#p08e73ca50e)">
     <use style="stroke:#000000;" x="69.632773" xlink:href="#m677baa0259" y="49.782857"/>
    </g>
   </g>
   <g id="line2d_4">
    <g clip-path="url(#p08e73ca50e)">
     <use style="stroke:#000000;" x="95.422689" xlink:href="#m677baa0259" y="53.554286"/>
    </g>
   </g>
   <g id="line2d_5">
    <g clip-path="url(#p08e73ca50e)">
     <use style="stroke:#000000;" x="121.212605" xlink:href="#m677baa0259" y="55.44"/>
    </g>
   </g>
   <g id="line2d_6">
    <g clip-path="url(#p08e73ca50e)">
     <use style="stroke:#000000;" x="147.002521" xlink:href="#m677baa0259" y="56.571429"/>
    </g>
   </g>
   <g id="line2d_7">
    <g clip-path="url(#p08e73ca50e)">
     <use style="stroke:#000000;" x="172.792437" xlink:href="#m677baa0259" y="57.325714"/>
    </g>
   </g>
   <g id="line2d_8">
    <g clip-path="url(#p08e73ca50e)">
     <use style="stroke:#000000;" x="198.582353" xlink:href="#m677baa0259" y="57.86449"/>
    </g>
   </g>
   <g id="line2d_9">
    <g clip-path="url(#p08e73ca50e)">
     <use style="stroke:#000000;" x="224.372269" xlink:href="#m677baa0259" y="58.268571"/>
    </g>
   </g>
   <g id="line2d_10">
    <g clip-path="url(#p08e73ca50e)">
     <use style="stroke:#000000;" x="250.162185" xlink:href="#m677baa0259" y="58.582857"/>
    </g>
   </g>
   <g id="line2d_11">
    <g clip-path="url(#p08e73ca50e)">
     <use style="stroke:#000000;" x="275.952101" xlink:href="#m677baa0259" y="58.834286"/>
    </g>
   </g>
   <g id="line2d_12">
    <path clip-path="url(#p08e73ca50e)" d="M 20.631933 25.698258 
L 22.953025 26.077603 
L 25.274118 26.687225 
L 27.59521 27.51984 
L 30.174202 28.694352 
L 32.753193 30.114642 
L 35.590084 31.936013 
L 38.684874 34.19583 
L 42.295462 37.131031 
L 46.679748 41.014605 
L 53.900924 47.778035 
L 60.348403 53.703853 
L 64.47479 57.212358 
L 68.085378 59.999444 
L 71.438067 62.296723 
L 74.532857 64.135368 
L 77.369748 65.563733 
L 80.206639 66.734758 
L 82.78563 67.571315 
L 85.364622 68.190461 
L 87.943613 68.595697 
L 90.522605 68.794022 
L 93.359496 68.785546 
L 96.196387 68.557028 
L 99.291176 68.082331 
L 102.643866 67.339504 
L 106.512353 66.245838 
L 111.412437 64.610719 
L 126.370588 59.432235 
L 130.496975 58.316181 
L 134.365462 57.494 
L 137.97605 56.947889 
L 141.586639 56.627715 
L 145.197227 56.534888 
L 148.807815 56.660867 
L 152.676303 57.018448 
L 157.060588 57.662345 
L 162.218571 58.666615 
L 170.213445 60.497162 
L 178.724118 62.381032 
L 183.882101 63.297508 
L 188.524286 63.897984 
L 192.908571 64.237377 
L 197.292857 64.343016 
L 201.677143 64.219019 
L 206.319328 63.859089 
L 211.477311 63.230585 
L 218.182689 62.170614 
L 233.398739 59.681167 
L 239.072521 59.036463 
L 243.972605 58.695372 
L 248.872689 58.576605 
L 253.772773 58.680994 
L 258.930756 59.011772 
L 264.862437 59.618737 
L 273.373109 60.739578 
L 284.720672 62.211154 
L 288.58916 62.598336 
L 288.58916 62.598336 
" style="fill:none;stroke:#1f77b4;stroke-linecap:square;"/>
   </g>
   <g id="line2d_13">
    <g clip-path="url(#p08e73ca50e)">
     <use style="stroke:#000000;" x="43.842857" xlink:href="#m677baa0259" y="38.468571"/>
    </g>
   </g>
   <g id="line2d_14">
    <g clip-path="url(#p08e73ca50e)">
     <use style="stroke:#000000;" x="69.632773" xlink:href="#m677baa0259" y="61.097143"/>
    </g>
   </g>
   <g id="line2d_15">
    <g clip-path="url(#p08e73ca50e)">
     <use style="stroke:#000000;" x="95.422689" xlink:href="#m677baa0259" y="68.64"/>
    </g>
   </g>
   <g id="line2d_16">
    <g clip-path="url(#p08e73ca50e)">
     <use style="stroke:#000000;" x="121.212605" xlink:href="#m677baa0259" y="61.097143"/>
    </g>
   </g>
   <g id="line2d_17">
    <g clip-path="url(#p08e73ca50e)">
     <use style="stroke:#000000;" x="147.002521" xlink:href="#m677baa0259" y="56.571429"/>
    </g>
   </g>
   <g id="line2d_18">
    <g clip-path="url(#p08e73ca50e)">
     <use style="stroke:#000000;" x="172.792437" xlink:href="#m677baa0259" y="61.097143"/>
    </g>
   </g>
   <g id="line2d_19">
    <g clip-path="url(#p08e73ca50e)">
     <use style="stroke:#000000;" x="198.582353" xlink:href="#m677baa0259" y="64.329796"/>
    </g>
   </g>
   <g id="line2d_20">
    <g clip-path="url(#p08e73ca50e)">
     <use style="stroke:#000000;" x="224.372269" xlink:href="#m677baa0259" y="61.097143"/>
    </g>
   </g>
   <g id="line2d_21">
    <g clip-path="url(#p08e73ca50e)">
     <use style="stroke:#000000;" x="250.162185" xlink:href="#m677baa0259" y="58.582857"/>
    </g>
   </g>
   <g id="line2d_22">
    <g clip-path="url(#p08e73ca50e)">
     <use style="stroke:#000000;" x="275.952101" xlink:href="#m677baa0259" y="61.097143"/>
    </g>
   </g>
   <g id="line2d_23">
    <path clip-path="url(#p08e73ca50e)" d="M 29.546217 111.88 
L 30.69 107.277901 
L 31.979496 103.001905 
L 33.268992 99.450654 
L 34.816387 95.91033 
L 36.363782 92.96837 
L 37.911176 90.484898 
L 39.716471 88.035918 
L 41.521765 85.963705 
L 43.584958 83.954286 
L 45.648151 82.24534 
L 47.969244 80.604532 
L 50.548235 79.056327 
L 53.385126 77.614348 
L 56.479916 76.284104 
L 60.090504 74.979702 
L 64.216891 73.738803 
L 68.859076 72.583727 
L 74.274958 71.477221 
L 80.464538 70.447792 
L 87.685714 69.478095 
L 96.196387 68.565318 
L 106.254454 67.713684 
L 118.375714 66.914256 
L 133.333866 66.159463 
L 151.644706 65.465593 
L 174.85563 64.818947 
L 204.514034 64.226959 
L 243.198908 63.68919 
L 288.58916 63.254299 
L 288.58916 63.254299 
" style="fill:none;stroke:#9467bd;stroke-linecap:square;"/>
   </g>
   <g id="line2d_24">
    <g clip-path="url(#p08e73ca50e)">
     <use style="stroke:#000000;" x="43.842857" xlink:href="#m677baa0259" y="83.725714"/>
    </g>
   </g>
   <g id="line2d_25">
    <g clip-path="url(#p08e73ca50e)">
     <use style="stroke:#000000;" x="69.632773" xlink:href="#m677baa0259" y="72.411429"/>
    </g>
   </g>
   <g id="line2d_26">
    <g clip-path="url(#p08e73ca50e)">
     <use style="stroke:#000000;" x="95.422689" xlink:href="#m677baa0259" y="68.64"/>
    </g>
   </g>
   <g id="line2d_27">
    <g clip-path="url(#p08e73ca50e)">
     <use style="stroke:#000000;" x="121.212605" xlink:href="#m677baa0259" y="66.754286"/>
    </g>
   </g>
   <g id="line2d_28">
    <g clip-path="url(#p08e73ca50e)">
     <use style="stroke:#000000;" x="147.002521" xlink:href="#m677baa0259" y="65.622857"/>
    </g>
   </g>
   <g id="line2d_29">
    <g clip-path="url(#p08e73ca50e)">
     <use style="stroke:#000000;" x="172.792437" xlink:href="#m677baa0259" y="64.868571"/>
    </g>
   </g>
   <g id="line2d_30">
    <g clip-path="url(#p08e73ca50e)">
     <use style="stroke:#000000;" x="198.582353" xlink:href="#m677baa0259" y="64.329796"/>
    </g>
   </g>
   <g id="line2d_31">
    <g clip-path="url(#p08e73ca50e)">
     <use style="stroke:#000000;" x="224.372269" xlink:href="#m677baa0259" y="63.925714"/>
    </g>
   </g>
   <g id="line2d_32">
    <g clip-path="url(#p08e73ca50e)">
     <use style="stroke:#000000;" x="250.162185" xlink:href="#m677baa0259" y="63.611429"/>
    </g>
   </g>
   <g id="line2d_33">
    <g clip-path="url(#p08e73ca50e)">
     <use style="stroke:#000000;" x="275.952101" xlink:href="#m677baa0259" y="63.36"/>
    </g>
   </g>
   <g id="text_1">
    <!-- $x$ -->
    <defs>
     <path d="M 47.40625 40.71875 
C 44.203125 40.109375 43 37.71875 43 35.828125 
C 43 33.421875 44.90625 32.625 46.296875 32.625 
C 49.296875 32.625 51.40625 35.21875 51.40625 37.921875 
C 51.40625 42.109375 46.59375 44 42.40625 44 
C 36.296875 44 32.90625 38.015625 32 36.125 
C 29.703125 44 23.5 44 21.703125 44 
C 11.5 44 6.09375 30.9375 6.09375 28.734375 
C 6.09375 28.34375 6.5 27.84375 7.203125 27.84375 
C 8 27.84375 8.203125 28.4375 8.40625 28.84375 
C 11.796875 39.921875 18.5 42.015625 21.40625 42.015625 
C 25.90625 42.015625 26.796875 37.8125 26.796875 35.421875 
C 26.796875 33.234375 26.203125 30.9375 25 26.140625 
L 21.59375 12.46875 
C 20.09375 6.484375 17.203125 1 11.90625 1 
C 11.40625 1 8.90625 1 6.796875 2.296875 
C 10.40625 3 11.203125 5.984375 11.203125 7.1875 
C 11.203125 9.1875 9.703125 10.375 7.796875 10.375 
C 5.40625 10.375 2.796875 8.28125 2.796875 5.09375 
C 2.796875 0.890625 7.5 -1 11.796875 -1 
C 16.59375 -1 20 2.796875 22.09375 6.890625 
C 23.703125 1 28.703125 -1 32.40625 -1 
C 42.59375 -1 48 12.078125 48 14.265625 
C 48 14.765625 47.59375 15.171875 47 15.171875 
C 46.09375 15.171875 46 14.671875 45.703125 13.875 
C 43 5.09375 37.203125 1 32.703125 1 
C 29.203125 1 27.296875 3.59375 27.296875 7.6875 
C 27.296875 9.875 27.703125 11.46875 29.296875 18.0625 
L 32.796875 31.625 
C 34.296875 37.625 37.703125 42.015625 42.296875 42.015625 
C 42.5 42.015625 45.296875 42.015625 47.40625 40.71875 
z
" id="CMMI12-120"/>
    </defs>
    <g transform="translate(293.993145 71.36915)scale(0.14 -0.14)">
     <use transform="scale(0.996264)" xlink:href="#CMMI12-120"/>
    </g>
   </g>
   <g id="text_2">
    <!-- $y$ -->
    <defs>
     <path d="M 26.296875 -10.9375 
C 23.59375 -14.671875 19.703125 -18 14.796875 -18 
C 13.59375 -18 8.796875 -18 7.296875 -13.890625 
C 7.59375 -13.984375 8.09375 -13.984375 8.296875 -13.984375 
C 11.296875 -13.984375 13.296875 -11.390625 13.296875 -9.09375 
C 13.296875 -6.796875 11.40625 -6 9.90625 -6 
C 8.296875 -6 4.796875 -7.15625 4.796875 -11.859375 
C 4.796875 -16.734375 9.09375 -20.09375 14.796875 -20.09375 
C 24.796875 -20.09375 34.90625 -10.9375 37.703125 0.09375 
L 47.5 38.828125 
C 47.59375 39.328125 47.796875 39.9375 47.796875 40.53125 
C 47.796875 42.015625 46.59375 43.015625 45.09375 43.015625 
C 44.203125 43.015625 42.09375 42.609375 41.296875 39.609375 
L 33.90625 10.28125 
C 33.40625 8.484375 33.40625 8.28125 32.59375 7.1875 
C 30.59375 4.390625 27.296875 1 22.5 1 
C 16.90625 1 16.40625 6.484375 16.40625 9.1875 
C 16.40625 14.875 19.09375 22.546875 21.796875 29.734375 
C 22.90625 32.625 23.5 34.03125 23.5 36.015625 
C 23.5 40.21875 20.5 44 15.59375 44 
C 6.40625 44 2.703125 29.53125 2.703125 28.734375 
C 2.703125 28.34375 3.09375 27.84375 3.796875 27.84375 
C 4.703125 27.84375 4.796875 28.234375 5.203125 29.640625 
C 7.59375 38.015625 11.40625 42.015625 15.296875 42.015625 
C 16.203125 42.015625 17.90625 42.015625 17.90625 38.71875 
C 17.90625 36.125 16.796875 33.234375 15.296875 29.4375 
C 10.40625 16.359375 10.40625 13.078125 10.40625 10.671875 
C 10.40625 1.203125 17.203125 -1 22.203125 -1 
C 25.09375 -1 28.703125 -0.09375 32.203125 3.59375 
L 32.296875 3.5 
C 30.796875 -2.296875 29.796875 -6.125 26.296875 -10.9375 
z
" id="CMMI12-121"/>
    </defs>
    <g transform="translate(8.275975 11.403435)scale(0.14 -0.14)">
     <use transform="scale(0.996264)" xlink:href="#CMMI12-121"/>
    </g>
   </g>
   <g id="text_3">
    <!-- $O$ -->
    <defs>
     <path d="M 72.59375 43.703125 
C 72.59375 60.125 61.796875 70.1875 47.796875 70.1875 
C 26.40625 70.1875 4.796875 47.28125 4.796875 24.28125 
C 4.796875 8.65625 15.203125 -2 29.703125 -2 
C 50.703125 -2 72.59375 19.8125 72.59375 43.703125 
z
M 30.296875 0.296875 
C 22.09375 0.296875 13.40625 6.265625 13.40625 21.796875 
C 13.40625 30.84375 16.703125 45.6875 24.90625 55.65625 
C 32.203125 64.421875 40.59375 68 47.296875 68 
C 56.09375 68 64.59375 61.625 64.59375 47.28125 
C 64.59375 38.421875 60.796875 24.578125 54.09375 15.125 
C 46.796875 4.96875 37.703125 0.296875 30.296875 0.296875 
z
" id="CMMI12-79"/>
    </defs>
    <g transform="translate(6.386918 71.36915)scale(0.14 -0.14)">
     <use transform="scale(0.996264)" xlink:href="#CMMI12-79"/>
    </g>
   </g>
   <g id="text_4">
    <!-- $$ a_n = \frac{1}{n} $$ -->
    <defs>
     <path d="M 30.09375 11.875 
C 29.59375 10.171875 29.59375 9.984375 28.203125 8.078125 
C 26 5.28125 21.59375 1 16.90625 1 
C 12.796875 1 10.5 4.6875 10.5 10.578125 
C 10.5 16.0625 13.59375 27.234375 15.5 31.4375 
C 18.90625 38.421875 23.59375 42.015625 27.5 42.015625 
C 34.09375 42.015625 35.40625 33.828125 35.40625 33.03125 
C 35.40625 32.9375 35.09375 31.625 35 31.4375 
z
M 36.5 37.421875 
C 35.40625 40.015625 32.703125 44 27.5 44 
C 16.203125 44 4 29.4375 4 14.671875 
C 4 4.796875 9.796875 -1 16.59375 -1 
C 22.09375 -1 26.796875 3.296875 29.59375 6.59375 
C 30.59375 0.703125 35.296875 -1 38.296875 -1 
C 41.296875 -1 43.703125 0.796875 45.5 4.390625 
C 47.09375 7.78125 48.5 13.875 48.5 14.265625 
C 48.5 14.765625 48.09375 15.171875 47.5 15.171875 
C 46.59375 15.171875 46.5 14.671875 46.09375 13.171875 
C 44.59375 7.28125 42.703125 1 38.59375 1 
C 35.703125 1 35.5 3.59375 35.5 5.59375 
C 35.5 7.890625 35.796875 8.984375 36.703125 12.875 
C 37.40625 15.375 37.90625 17.5625 38.703125 20.453125 
C 42.40625 35.421875 43.296875 39.015625 43.296875 39.609375 
C 43.296875 41.015625 42.203125 42.109375 40.703125 42.109375 
C 37.5 42.109375 36.703125 38.625 36.5 37.421875 
z
" id="CMMI12-97"/>
     <path d="M 20.59375 29.234375 
C 20.796875 29.84375 23.296875 34.828125 27 38.015625 
C 29.59375 40.40625 33 42.015625 36.90625 42.015625 
C 40.90625 42.015625 42.296875 39.015625 42.296875 35.03125 
C 42.296875 29.34375 38.203125 17.96875 36.203125 12.578125 
C 35.296875 10.171875 34.796875 8.875 34.796875 7.078125 
C 34.796875 2.59375 37.90625 -1 42.703125 -1 
C 52 -1 55.5 13.671875 55.5 14.265625 
C 55.5 14.765625 55.09375 15.171875 54.5 15.171875 
C 53.59375 15.171875 53.5 14.875 53 13.171875 
C 50.703125 4.984375 46.90625 1 43 1 
C 42 1 40.40625 1 40.40625 4.203125 
C 40.40625 6.703125 41.5 9.703125 42.09375 11.09375 
C 44.09375 16.609375 48.296875 27.8125 48.296875 33.515625 
C 48.296875 39.5 44.796875 44 37.203125 44 
C 28.296875 44 23.59375 37.734375 21.796875 35.234375 
C 21.5 40.90625 17.40625 44 13 44 
C 9.796875 44 7.59375 42.109375 5.90625 38.71875 
C 4.09375 35.125 2.703125 29.140625 2.703125 28.734375 
C 2.703125 28.34375 3.09375 27.84375 3.796875 27.84375 
C 4.59375 27.84375 4.703125 27.9375 5.296875 30.234375 
C 6.90625 36.328125 8.703125 42.015625 12.703125 42.015625 
C 15 42.015625 15.796875 40.40625 15.796875 37.421875 
C 15.796875 35.21875 14.796875 31.328125 14.09375 28.234375 
L 11.296875 17.46875 
C 10.90625 15.5625 9.796875 11.078125 9.296875 9.28125 
C 8.59375 6.6875 7.5 2 7.5 1.5 
C 7.5 0.09375 8.59375 -1 10.09375 -1 
C 11.296875 -1 12.703125 -0.40625 13.5 1.09375 
C 13.703125 1.59375 14.59375 5.09375 15.09375 7.078125 
L 17.296875 16.0625 
z
" id="CMMI12-110"/>
     <path d="M 64.296875 31.515625 
C 65.796875 31.515625 67.296875 31.515625 67.296875 33.203125 
C 67.296875 35 65.59375 35 63.90625 35 
L 8 35 
C 6.296875 35 4.59375 35 4.59375 33.203125 
C 4.59375 31.515625 6.09375 31.515625 7.59375 31.515625 
z
M 63.90625 14 
C 65.59375 14 67.296875 14 67.296875 15.796875 
C 67.296875 17.484375 65.796875 17.484375 64.296875 17.484375 
L 7.59375 17.484375 
C 6.09375 17.484375 4.59375 17.484375 4.59375 15.796875 
C 4.59375 14 6.296875 14 8 14 
z
" id="CMR17-61"/>
     <path d="M 26.59375 63.40625 
C 26.59375 65.5 26.5 65.5 25.09375 65.5 
C 21.203125 61.1875 15.296875 59.796875 9.703125 59.796875 
C 9.40625 59.796875 8.90625 59.796875 8.796875 59.5 
C 8.703125 59.296875 8.703125 59.09375 8.703125 57 
C 11.796875 57 17 57.59375 21 59.984375 
L 21 7.203125 
C 21 3.6875 20.796875 2.5 12.203125 2.5 
L 9.203125 2.5 
L 9.203125 0 
C 14 0 19 0 23.796875 0 
C 28.59375 0 33.59375 0 38.40625 0 
L 38.40625 2.5 
L 35.40625 2.5 
C 26.796875 2.5 26.59375 3.59375 26.59375 7.15625 
z
" id="CMR17-49"/>
    </defs>
    <g transform="translate(38.597416 38.179333)scale(0.14 -0.14)">
     <use transform="translate(0 68.338837)scale(0.996264)" xlink:href="#CMMI12-97"/>
     <use transform="translate(51.207858 53.394923)scale(0.697382)" xlink:href="#CMMI12-110"/>
     <use transform="translate(120.140841 68.338837)scale(0.996264)" xlink:href="#CMR17-61"/>
     <use transform="translate(226.994945 135.736882)scale(0.996264)" xlink:href="#CMR17-49"/>
     <use transform="translate(220.725152 0)scale(0.996264)" xlink:href="#CMMI12-110"/>
     <path d="M 220.725152 91.25297 
L 278.9552 91.25297 
L 278.9552 95.23792 
L 220.725152 95.23792 
L 220.725152 91.25297 
z
"/>
    </g>
   </g>
   <g id="text_5">
    <!-- $$ a_n = \frac{1}{n}\sin\frac{n}{2}\pi $$ -->
    <defs>
     <path d="M 30.90625 42.140625 
C 30.90625 43.953125 30.796875 44.046875 30.203125 44.046875 
C 29.796875 44.046875 29.703125 43.953125 28.5 42.453125 
C 28.203125 42.046875 27.296875 41.03125 27 40.640625 
C 23.796875 44.046875 19.296875 44.046875 17.59375 44.046875 
C 6.5 44.046875 2.5 38.234375 2.5 32.4375 
C 2.5 23.40625 12.703125 21.328125 15.59375 20.703125 
C 21.90625 19.421875 24.09375 19.015625 26.203125 17.203125 
C 27.5 16.015625 29.703125 13.8125 29.703125 10.21875 
C 29.703125 6 27.296875 0.59375 18.09375 0.59375 
C 9.40625 0.59375 6.296875 7.1875 4.5 15.953125 
C 4.203125 17.34375 4.203125 17.453125 3.40625 17.453125 
C 2.59375 17.453125 2.5 17.34375 2.5 15.359375 
L 2.5 0.984375 
C 2.5 -0.796875 2.59375 -0.90625 3.203125 -0.90625 
C 3.703125 -0.90625 3.796875 -0.796875 4.296875 0 
C 4.90625 0.890625 6.40625 3.296875 7 4.3125 
C 9 1.609375 12.5 -1 18.09375 -1 
C 28 -1 33.296875 4.421875 33.296875 12.25 
C 33.296875 17.375 30.59375 20.078125 29.296875 21.28125 
C 26.296875 24.390625 22.796875 25.09375 18.59375 25.890625 
C 13.09375 27.109375 6.09375 28.515625 6.09375 34.640625 
C 6.09375 37.234375 7.5 42.765625 17.59375 42.765625 
C 28.296875 42.765625 28.90625 32.71875 29.09375 29.5 
C 29.203125 29 29.703125 28.890625 30 28.890625 
C 30.90625 28.890625 30.90625 29.203125 30.90625 30.90625 
z
" id="CMR17-115"/>
     <path d="M 15.5 61.078125 
C 15.5 63.265625 13.703125 65.15625 11.40625 65.15625 
C 9.203125 65.15625 7.296875 63.375 7.296875 61.078125 
C 7.296875 58.890625 9.09375 57 11.40625 57 
C 13.59375 57 15.5 58.796875 15.5 61.078125 
z
M 3.796875 42.28125 
L 3.796875 39.703125 
C 9.40625 39.703125 10.203125 39.09375 10.203125 34.328125 
L 10.203125 6.671875 
C 10.203125 2.875 9.796875 2.390625 3.40625 2.390625 
L 3.40625 -0.203125 
C 5.796875 0 10.09375 0 12.59375 0 
C 15 0 19.09375 0 21.40625 -0.203125 
L 21.40625 2.390625 
C 15.5 2.390625 15.296875 2.984375 15.296875 6.5625 
L 15.296875 43.375 
z
" id="CMR17-105"/>
     <path d="M 41.5 30.203125 
C 41.5 35.296875 40.5 43.59375 28.703125 43.59375 
C 20.796875 43.59375 16.703125 37.5 15.203125 33.5 
L 15.09375 33.5 
L 15.09375 43.59375 
L 3.296875 42.5 
L 3.296875 39.90625 
C 9.203125 39.90625 10.09375 39.296875 10.09375 34.5 
L 10.09375 6.6875 
C 10.09375 2.875 9.703125 2.390625 3.296875 2.390625 
L 3.296875 -0.203125 
C 5.703125 0 10.09375 0 12.703125 0 
C 15.296875 0 19.796875 0 22.203125 -0.203125 
L 22.203125 2.390625 
C 15.796875 2.390625 15.40625 2.78125 15.40625 6.6875 
L 15.40625 25.90625 
C 15.40625 35.109375 21 42 28 42 
C 35.40625 42 36.203125 35.40625 36.203125 30.59375 
L 36.203125 6.6875 
C 36.203125 2.875 35.796875 2.390625 29.40625 2.390625 
L 29.40625 -0.203125 
C 31.796875 0 36.203125 0 38.796875 0 
C 41.40625 0 45.90625 0 48.296875 -0.203125 
L 48.296875 2.390625 
C 41.90625 2.390625 41.5 2.78125 41.5 6.6875 
z
" id="CMR17-110"/>
     <path d="M 41.703125 15.453125 
L 39.90625 15.453125 
C 38.90625 8.375 38.09375 7.171875 37.703125 6.5625 
C 37.203125 5.765625 30 5.765625 28.59375 5.765625 
L 9.40625 5.765625 
C 13 9.671875 20 16.75 28.5 24.953125 
C 34.59375 30.734375 41.703125 37.53125 41.703125 47.421875 
C 41.703125 59.21875 32.296875 66 21.796875 66 
C 10.796875 66 4.09375 56.3125 4.09375 47.34375 
C 4.09375 43.4375 7 42.9375 8.203125 42.9375 
C 9.203125 42.9375 12.203125 43.546875 12.203125 47.03125 
C 12.203125 50.109375 9.59375 51 8.203125 51 
C 7.59375 51 7 50.90625 6.59375 50.703125 
C 8.5 59.21875 14.296875 63.40625 20.40625 63.40625 
C 29.09375 63.40625 34.796875 56.515625 34.796875 47.421875 
C 34.796875 38.734375 29.703125 31.25 24 24.75 
L 4.09375 2.28125 
L 4.09375 0 
L 39.296875 0 
z
" id="CMR17-50"/>
     <path d="M 25.90625 37.625 
L 37.203125 37.625 
C 34.5 26.4375 32.796875 19.15625 32.796875 11.1875 
C 32.796875 9.78125 32.796875 -1 36.90625 -1 
C 39 -1 40.796875 0.890625 40.796875 2.59375 
C 40.796875 3.078125 40.796875 3.28125 40.09375 4.78125 
C 37.40625 11.671875 37.40625 20.25 37.40625 20.953125 
C 37.40625 21.546875 37.40625 28.625 39.5 37.625 
L 50.703125 37.625 
C 52 37.625 55.296875 37.625 55.296875 40.8125 
C 55.296875 43 53.40625 43 51.59375 43 
L 18.703125 43 
C 16.40625 43 13 43 8.40625 38.125 
C 5.796875 35.21875 2.59375 29.9375 2.59375 29.34375 
C 2.59375 28.75 3.09375 28.546875 3.703125 28.546875 
C 4.40625 28.546875 4.5 28.84375 5 29.4375 
C 10.203125 37.625 15.40625 37.625 17.90625 37.625 
L 23.59375 37.625 
C 21.40625 30.140625 18.90625 21.453125 10.703125 4 
C 9.90625 2.40625 9.90625 2.1875 9.90625 1.59375 
C 9.90625 -0.5 11.703125 -1 12.59375 -1 
C 15.5 -1 16.296875 1.59375 17.5 5.78125 
C 19.09375 10.875 19.09375 11.078125 20.09375 15.0625 
z
" id="CMMI12-25"/>
    </defs>
    <g transform="translate(144.516651 49.493618)scale(0.14 -0.14)">
     <use transform="translate(0 68.338837)scale(0.996264)" xlink:href="#CMMI12-97"/>
     <use transform="translate(51.207858 53.394923)scale(0.697382)" xlink:href="#CMMI12-110"/>
     <use transform="translate(120.140841 68.338837)scale(0.996264)" xlink:href="#CMR17-61"/>
     <use transform="translate(226.994945 135.736882)scale(0.996264)" xlink:href="#CMR17-49"/>
     <use transform="translate(220.725152 0)scale(0.996264)" xlink:href="#CMMI12-110"/>
     <use transform="translate(296.755119 68.338837)scale(0.996264)" xlink:href="#CMR17-115"/>
     <use transform="translate(332.556456 68.338837)scale(0.996264)" xlink:href="#CMR17-105"/>
     <use transform="translate(357.427515 68.338837)scale(0.996264)" xlink:href="#CMR17-110"/>
     <use transform="translate(426.122804 135.736882)scale(0.996264)" xlink:href="#CMMI12-110"/>
     <use transform="translate(432.392596 0)scale(0.996264)" xlink:href="#CMR17-50"/>
     <use transform="translate(485.548365 68.338837)scale(0.996264)" xlink:href="#CMMI12-25"/>
     <path d="M 220.725152 91.25297 
L 278.9552 91.25297 
L 278.9552 95.23792 
L 220.725152 95.23792 
L 220.725152 91.25297 
z
"/>
     <path d="M 426.122804 91.25297 
L 484.352851 91.25297 
L 484.352851 95.23792 
L 426.122804 95.23792 
L 426.122804 91.25297 
z
"/>
    </g>
   </g>
   <g id="text_6">
    <!-- $$ a_n = -\frac{1}{n} $$ -->
    <defs>
     <path d="M 65.90625 23 
C 67.59375 23 69.40625 23 69.40625 25 
C 69.40625 27 67.59375 27 65.90625 27 
L 11.796875 27 
C 10.09375 27 8.296875 27 8.296875 25 
C 8.296875 23 10.09375 23 11.796875 23 
z
" id="CMSY10-0"/>
    </defs>
    <g transform="translate(40.910273 106.065047)scale(0.14 -0.14)">
     <use transform="translate(0 68.338837)scale(0.996264)" xlink:href="#CMMI12-97"/>
     <use transform="translate(51.207858 53.394923)scale(0.697382)" xlink:href="#CMMI12-110"/>
     <use transform="translate(120.140841 68.338837)scale(0.996264)" xlink:href="#CMR17-61"/>
     <use transform="translate(219.529639 68.338837)scale(0.996264)" xlink:href="#CMSY10-0"/>
     <use transform="translate(304.482413 135.736882)scale(0.996264)" xlink:href="#CMR17-49"/>
     <use transform="translate(298.21262 0)scale(0.996264)" xlink:href="#CMMI12-110"/>
     <path d="M 298.21262 91.25297 
L 356.442667 91.25297 
L 356.442667 95.23792 
L 298.21262 95.23792 
L 298.21262 91.25297 
z
"/>
    </g>
   </g>
  </g>
 </g>
 <defs>
  <clipPath id="p08e73ca50e">
   <rect height="110.88" width="306.9" x="0" y="-0"/>
  </clipPath>
 </defs>
</svg>
